%FSLAX45Y45*%
G04 Gerber Fmt 4.5, Leading zero omitted, Abs format (unit mm)*
G04 Created by KiCad (PCBNEW (6.0.0)) date 2021-12-31 14:49:55*
%MOMM*%
%LPD*%
G01*
G04 APERTURE LIST*
%TA.AperFunction,Profile*%
%ADD10C,0.100000*%
%TD*%
%ADD11C,0.200000*%
G04 APERTURE END LIST*
D10*
X11154000Y-6455750D02*
X11154000Y-7325750D01*
X9354000Y-8025750D02*
X9354000Y-7325750D01*
X10234000Y-6125750D02*
X10234000Y-6325750D01*
X10574000Y-6125750D02*
X10574000Y-6325750D01*
X11454000Y-7325750D02*
X11154000Y-7325750D01*
X10574000Y-6125750D02*
X10234000Y-6125750D01*
X9654000Y-6465750D02*
X9654000Y-7325750D01*
X9784000Y-6325750D02*
X9654000Y-6465750D01*
X9354000Y-7325750D02*
X9654000Y-7325750D01*
X10234000Y-6325750D02*
X9784000Y-6325750D01*
X11014000Y-6325750D02*
X11154000Y-6455750D01*
X11454000Y-8025750D02*
X11454000Y-7325750D01*
X10574000Y-6325750D02*
X11014000Y-6325750D01*
X11454000Y-8025750D02*
X9354000Y-8025750D01*
D11*
X9606619Y-8341226D02*
X9606619Y-8141226D01*
X9654238Y-8141226D01*
X9682810Y-8150750D01*
X9701857Y-8169798D01*
X9711381Y-8188845D01*
X9720905Y-8226940D01*
X9720905Y-8255512D01*
X9711381Y-8293607D01*
X9701857Y-8312655D01*
X9682810Y-8331702D01*
X9654238Y-8341226D01*
X9606619Y-8341226D01*
X9806619Y-8341226D02*
X9806619Y-8207893D01*
X9806619Y-8245988D02*
X9816143Y-8226940D01*
X9825667Y-8217417D01*
X9844714Y-8207893D01*
X9863762Y-8207893D01*
X9930429Y-8341226D02*
X9930429Y-8207893D01*
X9930429Y-8141226D02*
X9920905Y-8150750D01*
X9930429Y-8160274D01*
X9939952Y-8150750D01*
X9930429Y-8141226D01*
X9930429Y-8160274D01*
X10054238Y-8341226D02*
X10035190Y-8331702D01*
X10025667Y-8312655D01*
X10025667Y-8141226D01*
X10159000Y-8341226D02*
X10139952Y-8331702D01*
X10130429Y-8312655D01*
X10130429Y-8141226D01*
X10387571Y-8341226D02*
X10387571Y-8141226D01*
X10454238Y-8284083D01*
X10520905Y-8141226D01*
X10520905Y-8341226D01*
X10701857Y-8341226D02*
X10701857Y-8236464D01*
X10692333Y-8217417D01*
X10673286Y-8207893D01*
X10635190Y-8207893D01*
X10616143Y-8217417D01*
X10701857Y-8331702D02*
X10682810Y-8341226D01*
X10635190Y-8341226D01*
X10616143Y-8331702D01*
X10606619Y-8312655D01*
X10606619Y-8293607D01*
X10616143Y-8274559D01*
X10635190Y-8265036D01*
X10682810Y-8265036D01*
X10701857Y-8255512D01*
X10797095Y-8207893D02*
X10797095Y-8407893D01*
X10797095Y-8217417D02*
X10816143Y-8207893D01*
X10854238Y-8207893D01*
X10873286Y-8217417D01*
X10882810Y-8226940D01*
X10892333Y-8245988D01*
X10892333Y-8303131D01*
X10882810Y-8322178D01*
X10873286Y-8331702D01*
X10854238Y-8341226D01*
X10816143Y-8341226D01*
X10797095Y-8331702D01*
X10978048Y-8322178D02*
X10987571Y-8331702D01*
X10978048Y-8341226D01*
X10968524Y-8331702D01*
X10978048Y-8322178D01*
X10978048Y-8341226D01*
X10978048Y-8217417D02*
X10987571Y-8226940D01*
X10978048Y-8236464D01*
X10968524Y-8226940D01*
X10978048Y-8217417D01*
X10978048Y-8236464D01*
M02*
