G04 #@! TF.GenerationSoftware,KiCad,Pcbnew,(6.0.0)*
G04 #@! TF.CreationDate,2021-12-31T14:49:46+01:00*
G04 #@! TF.ProjectId,marklin-v100-led-back-pcb,6d61726b-6c69-46e2-9d76-3130302d6c65,0.1*
G04 #@! TF.SameCoordinates,Original*
G04 #@! TF.FileFunction,Legend,Bot*
G04 #@! TF.FilePolarity,Positive*
%FSLAX46Y46*%
G04 Gerber Fmt 4.6, Leading zero omitted, Abs format (unit mm)*
G04 Created by KiCad (PCBNEW (6.0.0)) date 2021-12-31 14:49:46*
%MOMM*%
%LPD*%
G01*
G04 APERTURE LIST*
%ADD10C,0.300000*%
%ADD11C,0.150000*%
%ADD12C,0.120000*%
%ADD13R,2.000000X2.000000*%
G04 APERTURE END LIST*
D10*
X103732857Y-68850357D02*
X103518571Y-68921785D01*
X103447142Y-68993214D01*
X103375714Y-69136071D01*
X103375714Y-69350357D01*
X103447142Y-69493214D01*
X103518571Y-69564642D01*
X103661428Y-69636071D01*
X104232857Y-69636071D01*
X104232857Y-68136071D01*
X103732857Y-68136071D01*
X103590000Y-68207500D01*
X103518571Y-68278928D01*
X103447142Y-68421785D01*
X103447142Y-68564642D01*
X103518571Y-68707500D01*
X103590000Y-68778928D01*
X103732857Y-68850357D01*
X104232857Y-68850357D01*
X109104285Y-74821071D02*
X109104285Y-73321071D01*
X108604285Y-74392500D01*
X108104285Y-73321071D01*
X108104285Y-74821071D01*
X106747142Y-74821071D02*
X106747142Y-74035357D01*
X106818571Y-73892500D01*
X106961428Y-73821071D01*
X107247142Y-73821071D01*
X107390000Y-73892500D01*
X106747142Y-74749642D02*
X106890000Y-74821071D01*
X107247142Y-74821071D01*
X107390000Y-74749642D01*
X107461428Y-74606785D01*
X107461428Y-74463928D01*
X107390000Y-74321071D01*
X107247142Y-74249642D01*
X106890000Y-74249642D01*
X106747142Y-74178214D01*
X107390000Y-73321071D02*
X107318571Y-73392500D01*
X107390000Y-73463928D01*
X107461428Y-73392500D01*
X107390000Y-73321071D01*
X107390000Y-73463928D01*
X106818571Y-73321071D02*
X106747142Y-73392500D01*
X106818571Y-73463928D01*
X106890000Y-73392500D01*
X106818571Y-73321071D01*
X106818571Y-73463928D01*
X106032857Y-74678214D02*
X105961428Y-74749642D01*
X106032857Y-74821071D01*
X106104285Y-74749642D01*
X106032857Y-74678214D01*
X106032857Y-74821071D01*
X104318571Y-73321071D02*
X103390000Y-73321071D01*
X103890000Y-73892500D01*
X103675714Y-73892500D01*
X103532857Y-73963928D01*
X103461428Y-74035357D01*
X103390000Y-74178214D01*
X103390000Y-74535357D01*
X103461428Y-74678214D01*
X103532857Y-74749642D01*
X103675714Y-74821071D01*
X104104285Y-74821071D01*
X104247142Y-74749642D01*
X104318571Y-74678214D01*
X102461428Y-73321071D02*
X102318571Y-73321071D01*
X102175714Y-73392500D01*
X102104285Y-73463928D01*
X102032857Y-73606785D01*
X101961428Y-73892500D01*
X101961428Y-74249642D01*
X102032857Y-74535357D01*
X102104285Y-74678214D01*
X102175714Y-74749642D01*
X102318571Y-74821071D01*
X102461428Y-74821071D01*
X102604285Y-74749642D01*
X102675714Y-74678214D01*
X102747142Y-74535357D01*
X102818571Y-74249642D01*
X102818571Y-73892500D01*
X102747142Y-73606785D01*
X102675714Y-73463928D01*
X102604285Y-73392500D01*
X102461428Y-73321071D01*
X101461428Y-73321071D02*
X100461428Y-73321071D01*
X101104285Y-74821071D01*
X99961428Y-73463928D02*
X99890000Y-73392500D01*
X99747142Y-73321071D01*
X99390000Y-73321071D01*
X99247142Y-73392500D01*
X99175714Y-73463928D01*
X99104285Y-73606785D01*
X99104285Y-73749642D01*
X99175714Y-73963928D01*
X100032857Y-74821071D01*
X99104285Y-74821071D01*
X111925714Y-76450357D02*
X111711428Y-76521785D01*
X111640000Y-76593214D01*
X111568571Y-76736071D01*
X111568571Y-76950357D01*
X111640000Y-77093214D01*
X111711428Y-77164642D01*
X111854285Y-77236071D01*
X112425714Y-77236071D01*
X112425714Y-75736071D01*
X111925714Y-75736071D01*
X111782857Y-75807500D01*
X111711428Y-75878928D01*
X111640000Y-76021785D01*
X111640000Y-76164642D01*
X111711428Y-76307500D01*
X111782857Y-76378928D01*
X111925714Y-76450357D01*
X112425714Y-76450357D01*
X110282857Y-77236071D02*
X110282857Y-76450357D01*
X110354285Y-76307500D01*
X110497142Y-76236071D01*
X110782857Y-76236071D01*
X110925714Y-76307500D01*
X110282857Y-77164642D02*
X110425714Y-77236071D01*
X110782857Y-77236071D01*
X110925714Y-77164642D01*
X110997142Y-77021785D01*
X110997142Y-76878928D01*
X110925714Y-76736071D01*
X110782857Y-76664642D01*
X110425714Y-76664642D01*
X110282857Y-76593214D01*
X108925714Y-77164642D02*
X109068571Y-77236071D01*
X109354285Y-77236071D01*
X109497142Y-77164642D01*
X109568571Y-77093214D01*
X109640000Y-76950357D01*
X109640000Y-76521785D01*
X109568571Y-76378928D01*
X109497142Y-76307500D01*
X109354285Y-76236071D01*
X109068571Y-76236071D01*
X108925714Y-76307500D01*
X108282857Y-77236071D02*
X108282857Y-75736071D01*
X108140000Y-76664642D02*
X107711428Y-77236071D01*
X107711428Y-76236071D02*
X108282857Y-76807500D01*
X107068571Y-76664642D02*
X105925714Y-76664642D01*
X104497142Y-77236071D02*
X105211428Y-77236071D01*
X105211428Y-75736071D01*
X103997142Y-76450357D02*
X103497142Y-76450357D01*
X103282857Y-77236071D02*
X103997142Y-77236071D01*
X103997142Y-75736071D01*
X103282857Y-75736071D01*
X102640000Y-77236071D02*
X102640000Y-75736071D01*
X102282857Y-75736071D01*
X102068571Y-75807500D01*
X101925714Y-75950357D01*
X101854285Y-76093214D01*
X101782857Y-76378928D01*
X101782857Y-76593214D01*
X101854285Y-76878928D01*
X101925714Y-77021785D01*
X102068571Y-77164642D01*
X102282857Y-77236071D01*
X102640000Y-77236071D01*
X100211428Y-75736071D02*
X99711428Y-77236071D01*
X99211428Y-75736071D01*
X98425714Y-75736071D02*
X98282857Y-75736071D01*
X98140000Y-75807500D01*
X98068571Y-75878928D01*
X97997142Y-76021785D01*
X97925714Y-76307500D01*
X97925714Y-76664642D01*
X97997142Y-76950357D01*
X98068571Y-77093214D01*
X98140000Y-77164642D01*
X98282857Y-77236071D01*
X98425714Y-77236071D01*
X98568571Y-77164642D01*
X98640000Y-77093214D01*
X98711428Y-76950357D01*
X98782857Y-76664642D01*
X98782857Y-76307500D01*
X98711428Y-76021785D01*
X98640000Y-75878928D01*
X98568571Y-75807500D01*
X98425714Y-75736071D01*
X97282857Y-77093214D02*
X97211428Y-77164642D01*
X97282857Y-77236071D01*
X97354285Y-77164642D01*
X97282857Y-77093214D01*
X97282857Y-77236071D01*
X95782857Y-77236071D02*
X96640000Y-77236071D01*
X96211428Y-77236071D02*
X96211428Y-75736071D01*
X96354285Y-75950357D01*
X96497142Y-76093214D01*
X96640000Y-76164642D01*
X110640000Y-78222500D02*
X110782857Y-78151071D01*
X110997142Y-78151071D01*
X111211428Y-78222500D01*
X111354285Y-78365357D01*
X111425714Y-78508214D01*
X111497142Y-78793928D01*
X111497142Y-79008214D01*
X111425714Y-79293928D01*
X111354285Y-79436785D01*
X111211428Y-79579642D01*
X110997142Y-79651071D01*
X110854285Y-79651071D01*
X110640000Y-79579642D01*
X110568571Y-79508214D01*
X110568571Y-79008214D01*
X110854285Y-79008214D01*
X109282857Y-78651071D02*
X109282857Y-79651071D01*
X109925714Y-78651071D02*
X109925714Y-79436785D01*
X109854285Y-79579642D01*
X109711428Y-79651071D01*
X109497142Y-79651071D01*
X109354285Y-79579642D01*
X109282857Y-79508214D01*
X108568571Y-79651071D02*
X108568571Y-78651071D01*
X108568571Y-78151071D02*
X108640000Y-78222500D01*
X108568571Y-78293928D01*
X108497142Y-78222500D01*
X108568571Y-78151071D01*
X108568571Y-78293928D01*
X107211428Y-79651071D02*
X107211428Y-78151071D01*
X107211428Y-79579642D02*
X107354285Y-79651071D01*
X107640000Y-79651071D01*
X107782857Y-79579642D01*
X107854285Y-79508214D01*
X107925714Y-79365357D01*
X107925714Y-78936785D01*
X107854285Y-78793928D01*
X107782857Y-78722500D01*
X107640000Y-78651071D01*
X107354285Y-78651071D01*
X107211428Y-78722500D01*
X106282857Y-79651071D02*
X106425714Y-79579642D01*
X106497142Y-79508214D01*
X106568571Y-79365357D01*
X106568571Y-78936785D01*
X106497142Y-78793928D01*
X106425714Y-78722500D01*
X106282857Y-78651071D01*
X106068571Y-78651071D01*
X105925714Y-78722500D01*
X105854285Y-78793928D01*
X105782857Y-78936785D01*
X105782857Y-79365357D01*
X105854285Y-79508214D01*
X105925714Y-79579642D01*
X106068571Y-79651071D01*
X106282857Y-79651071D01*
X103354285Y-79651071D02*
X103354285Y-78151071D01*
X103354285Y-79579642D02*
X103497142Y-79651071D01*
X103782857Y-79651071D01*
X103925714Y-79579642D01*
X103997142Y-79508214D01*
X104068571Y-79365357D01*
X104068571Y-78936785D01*
X103997142Y-78793928D01*
X103925714Y-78722500D01*
X103782857Y-78651071D01*
X103497142Y-78651071D01*
X103354285Y-78722500D01*
X102068571Y-79579642D02*
X102211428Y-79651071D01*
X102497142Y-79651071D01*
X102640000Y-79579642D01*
X102711428Y-79436785D01*
X102711428Y-78865357D01*
X102640000Y-78722500D01*
X102497142Y-78651071D01*
X102211428Y-78651071D01*
X102068571Y-78722500D01*
X101997142Y-78865357D01*
X101997142Y-79008214D01*
X102711428Y-79151071D01*
X100211428Y-79651071D02*
X100211428Y-78151071D01*
X100211428Y-78865357D02*
X99354285Y-78865357D01*
X99354285Y-79651071D02*
X99354285Y-78151071D01*
X98068571Y-79579642D02*
X98211428Y-79651071D01*
X98497142Y-79651071D01*
X98640000Y-79579642D01*
X98711428Y-79436785D01*
X98711428Y-78865357D01*
X98640000Y-78722500D01*
X98497142Y-78651071D01*
X98211428Y-78651071D01*
X98068571Y-78722500D01*
X97997142Y-78865357D01*
X97997142Y-79008214D01*
X98711428Y-79151071D01*
X97354285Y-79651071D02*
X97354285Y-78151071D01*
X97211428Y-79079642D02*
X96782857Y-79651071D01*
X96782857Y-78651071D02*
X97354285Y-79222500D01*
X109597142Y-68036071D02*
X109597142Y-69250357D01*
X109525714Y-69393214D01*
X109454285Y-69464642D01*
X109311428Y-69536071D01*
X109025714Y-69536071D01*
X108882857Y-69464642D01*
X108811428Y-69393214D01*
X108740000Y-69250357D01*
X108740000Y-68036071D01*
X108025714Y-68964642D02*
X106882857Y-68964642D01*
X107454285Y-69536071D02*
X107454285Y-68393214D01*
X99425714Y-68850357D02*
X99925714Y-68850357D01*
X99925714Y-69636071D02*
X99925714Y-68136071D01*
X99211428Y-68136071D01*
D11*
X100173333Y-63509880D02*
X100173333Y-64224166D01*
X100220952Y-64367023D01*
X100316190Y-64462261D01*
X100459047Y-64509880D01*
X100554285Y-64509880D01*
X99173333Y-64509880D02*
X99744761Y-64509880D01*
X99459047Y-64509880D02*
X99459047Y-63509880D01*
X99554285Y-63652738D01*
X99649523Y-63747976D01*
X99744761Y-63795595D01*
X108373333Y-63409880D02*
X108373333Y-64124166D01*
X108420952Y-64267023D01*
X108516190Y-64362261D01*
X108659047Y-64409880D01*
X108754285Y-64409880D01*
X107992380Y-63409880D02*
X107373333Y-63409880D01*
X107706666Y-63790833D01*
X107563809Y-63790833D01*
X107468571Y-63838452D01*
X107420952Y-63886071D01*
X107373333Y-63981309D01*
X107373333Y-64219404D01*
X107420952Y-64314642D01*
X107468571Y-64362261D01*
X107563809Y-64409880D01*
X107849523Y-64409880D01*
X107944761Y-64362261D01*
X107992380Y-64314642D01*
X104373333Y-63509880D02*
X104373333Y-64224166D01*
X104420952Y-64367023D01*
X104516190Y-64462261D01*
X104659047Y-64509880D01*
X104754285Y-64509880D01*
X103944761Y-63605119D02*
X103897142Y-63557500D01*
X103801904Y-63509880D01*
X103563809Y-63509880D01*
X103468571Y-63557500D01*
X103420952Y-63605119D01*
X103373333Y-63700357D01*
X103373333Y-63795595D01*
X103420952Y-63938452D01*
X103992380Y-64509880D01*
X103373333Y-64509880D01*
D12*
X101090000Y-65057500D02*
X98690000Y-65057500D01*
X98690000Y-67457500D02*
X101090000Y-67457500D01*
X101090000Y-67457500D02*
X101090000Y-65057500D01*
X98690000Y-65057500D02*
X98690000Y-67457500D01*
X109190000Y-65057500D02*
X106790000Y-65057500D01*
X106790000Y-65057500D02*
X106790000Y-67457500D01*
X109190000Y-67457500D02*
X109190000Y-65057500D01*
X106790000Y-67457500D02*
X109190000Y-67457500D01*
X105140000Y-67457500D02*
X105140000Y-65057500D01*
X105140000Y-65057500D02*
X102740000Y-65057500D01*
X102740000Y-67457500D02*
X105140000Y-67457500D01*
X102740000Y-65057500D02*
X102740000Y-67457500D01*
%LPC*%
D13*
X99890000Y-66257500D03*
X107990000Y-66257500D03*
X103940000Y-66257500D03*
M02*
