G04 #@! TF.GenerationSoftware,KiCad,Pcbnew,(6.0.0)*
G04 #@! TF.CreationDate,2021-12-31T14:49:46+01:00*
G04 #@! TF.ProjectId,marklin-v100-led-back-pcb,6d61726b-6c69-46e2-9d76-3130302d6c65,0.1*
G04 #@! TF.SameCoordinates,Original*
G04 #@! TF.FileFunction,Copper,L1,Top*
G04 #@! TF.FilePolarity,Positive*
%FSLAX46Y46*%
G04 Gerber Fmt 4.6, Leading zero omitted, Abs format (unit mm)*
G04 Created by KiCad (PCBNEW (6.0.0)) date 2021-12-31 14:49:46*
%MOMM*%
%LPD*%
G01*
G04 APERTURE LIST*
G04 Aperture macros list*
%AMRoundRect*
0 Rectangle with rounded corners*
0 $1 Rounding radius*
0 $2 $3 $4 $5 $6 $7 $8 $9 X,Y pos of 4 corners*
0 Add a 4 corners polygon primitive as box body*
4,1,4,$2,$3,$4,$5,$6,$7,$8,$9,$2,$3,0*
0 Add four circle primitives for the rounded corners*
1,1,$1+$1,$2,$3*
1,1,$1+$1,$4,$5*
1,1,$1+$1,$6,$7*
1,1,$1+$1,$8,$9*
0 Add four rect primitives between the rounded corners*
20,1,$1+$1,$2,$3,$4,$5,0*
20,1,$1+$1,$4,$5,$6,$7,0*
20,1,$1+$1,$6,$7,$8,$9,0*
20,1,$1+$1,$8,$9,$2,$3,0*%
G04 Aperture macros list end*
G04 #@! TA.AperFunction,SMDPad,CuDef*
%ADD10RoundRect,0.250000X-0.450000X0.262500X-0.450000X-0.262500X0.450000X-0.262500X0.450000X0.262500X0*%
G04 #@! TD*
G04 #@! TA.AperFunction,SMDPad,CuDef*
%ADD11RoundRect,0.218750X-0.218750X-0.256250X0.218750X-0.256250X0.218750X0.256250X-0.218750X0.256250X0*%
G04 #@! TD*
G04 #@! TA.AperFunction,SMDPad,CuDef*
%ADD12RoundRect,0.218750X0.256250X-0.218750X0.256250X0.218750X-0.256250X0.218750X-0.256250X-0.218750X0*%
G04 #@! TD*
G04 #@! TA.AperFunction,SMDPad,CuDef*
%ADD13RoundRect,0.218750X-0.256250X0.218750X-0.256250X-0.218750X0.256250X-0.218750X0.256250X0.218750X0*%
G04 #@! TD*
G04 #@! TA.AperFunction,SMDPad,CuDef*
%ADD14RoundRect,0.250000X0.450000X-0.262500X0.450000X0.262500X-0.450000X0.262500X-0.450000X-0.262500X0*%
G04 #@! TD*
G04 #@! TA.AperFunction,ViaPad*
%ADD15C,0.800000*%
G04 #@! TD*
G04 #@! TA.AperFunction,Conductor*
%ADD16C,0.250000*%
G04 #@! TD*
G04 APERTURE END LIST*
D10*
X98640000Y-65245000D03*
X98640000Y-67070000D03*
D11*
X103265000Y-62157500D03*
X104840000Y-62157500D03*
D12*
X94540000Y-75832500D03*
X94540000Y-74257500D03*
D13*
X113540000Y-74270000D03*
X113540000Y-75845000D03*
D12*
X94540000Y-78982500D03*
X94540000Y-77407500D03*
D13*
X113540000Y-77470000D03*
X113540000Y-79045000D03*
D14*
X109140000Y-67070000D03*
X109140000Y-65245000D03*
D15*
X98840000Y-74457500D03*
X98340000Y-77357500D03*
X108540000Y-68957500D03*
X101240000Y-64057500D03*
X104140000Y-77457500D03*
X105340000Y-70457500D03*
D16*
X98340000Y-77357500D02*
X94590000Y-77357500D01*
X94590000Y-77357500D02*
X94540000Y-77407500D01*
X103265000Y-70032500D02*
X103265000Y-62157500D01*
X103265000Y-70032500D02*
X98840000Y-74457500D01*
X107852500Y-63957500D02*
X105640000Y-63957500D01*
X105640000Y-63957500D02*
X104840000Y-63157500D01*
X104840000Y-63157500D02*
X104840000Y-62157500D01*
X109140000Y-65245000D02*
X107852500Y-63957500D01*
X94602500Y-79045000D02*
X94540000Y-78982500D01*
X113540000Y-79045000D02*
X94602500Y-79045000D01*
X99827500Y-64057500D02*
X98640000Y-65245000D01*
X109140000Y-68357500D02*
X108540000Y-68957500D01*
X101240000Y-64057500D02*
X99827500Y-64057500D01*
X109140000Y-67070000D02*
X109140000Y-68357500D01*
X94540000Y-75832500D02*
X113527500Y-75832500D01*
X113527500Y-75832500D02*
X113540000Y-75845000D01*
X96740000Y-74257500D02*
X94540000Y-74257500D01*
X98640000Y-67070000D02*
X98640000Y-72357500D01*
X98640000Y-72357500D02*
X96740000Y-74257500D01*
X104140000Y-77457500D02*
X113527500Y-77457500D01*
X113527500Y-77457500D02*
X113540000Y-77470000D01*
X105340000Y-70457500D02*
X109152500Y-74270000D01*
X109152500Y-74270000D02*
X113540000Y-74270000D01*
M02*
