%FSLAX45Y45*%
G04 Gerber Fmt 4.5, Leading zero omitted, Abs format (unit mm)*
G04 Created by KiCad (PCBNEW (6.0.0)) date 2021-12-31 14:26:19*
%MOMM*%
%LPD*%
G01*
G04 APERTURE LIST*
%TA.AperFunction,Profile*%
%ADD10C,0.100000*%
%TD*%
%ADD11C,0.200000*%
%ADD12C,0.040000*%
G04 APERTURE END LIST*
D10*
X11354000Y-7325750D02*
X11154000Y-7325750D01*
X11154000Y-6455750D02*
X11154000Y-7325750D01*
X10574000Y-6225750D02*
X10924000Y-6225750D01*
X10234000Y-6225750D02*
X10234000Y-6025750D01*
X10234000Y-6225750D02*
X9864000Y-6225750D01*
X10574000Y-6025750D02*
X10574000Y-6225750D01*
X9654000Y-6465750D02*
X9654000Y-7325750D01*
X9454000Y-8025750D02*
X11354000Y-8025750D01*
X9454000Y-7325750D02*
X9654000Y-7325750D01*
X11354000Y-8025750D02*
X11354000Y-7325750D01*
X9454000Y-8025750D02*
X9454000Y-7325750D01*
X10234000Y-6025750D02*
X10574000Y-6025750D01*
X10924000Y-6225750D02*
X11154000Y-6455750D01*
X9864000Y-6225750D02*
X9654000Y-6465750D01*
D11*
D12*
X9814000Y-7715750D02*
X9854000Y-7755750D01*
X9854000Y-7715750D02*
X9814000Y-7755750D01*
X9864000Y-7425750D02*
X9904000Y-7465750D01*
X9904000Y-7425750D02*
X9864000Y-7465750D01*
X10034000Y-6295750D02*
X10074000Y-6335750D01*
X10074000Y-6295750D02*
X10034000Y-6335750D01*
X10394000Y-7725750D02*
X10434000Y-7765750D01*
X10434000Y-7725750D02*
X10394000Y-7765750D01*
X10514000Y-7025750D02*
X10554000Y-7065750D01*
X10554000Y-7025750D02*
X10514000Y-7065750D01*
X10834000Y-6875750D02*
X10874000Y-6915750D01*
X10874000Y-6875750D02*
X10834000Y-6915750D01*
D11*
X9706619Y-8341226D02*
X9706619Y-8141226D01*
X9754238Y-8141226D01*
X9782810Y-8150750D01*
X9801857Y-8169798D01*
X9811381Y-8188845D01*
X9820905Y-8226940D01*
X9820905Y-8255512D01*
X9811381Y-8293607D01*
X9801857Y-8312655D01*
X9782810Y-8331702D01*
X9754238Y-8341226D01*
X9706619Y-8341226D01*
X9906619Y-8341226D02*
X9906619Y-8207893D01*
X9906619Y-8245988D02*
X9916143Y-8226940D01*
X9925667Y-8217417D01*
X9944714Y-8207893D01*
X9963762Y-8207893D01*
X10030429Y-8341226D02*
X10030429Y-8207893D01*
X10030429Y-8141226D02*
X10020905Y-8150750D01*
X10030429Y-8160274D01*
X10039952Y-8150750D01*
X10030429Y-8141226D01*
X10030429Y-8160274D01*
X10154238Y-8341226D02*
X10135190Y-8331702D01*
X10125667Y-8312655D01*
X10125667Y-8141226D01*
X10259000Y-8341226D02*
X10239952Y-8331702D01*
X10230429Y-8312655D01*
X10230429Y-8141226D01*
X10487571Y-8341226D02*
X10487571Y-8141226D01*
X10554238Y-8284083D01*
X10620905Y-8141226D01*
X10620905Y-8341226D01*
X10801857Y-8341226D02*
X10801857Y-8236464D01*
X10792333Y-8217417D01*
X10773286Y-8207893D01*
X10735190Y-8207893D01*
X10716143Y-8217417D01*
X10801857Y-8331702D02*
X10782810Y-8341226D01*
X10735190Y-8341226D01*
X10716143Y-8331702D01*
X10706619Y-8312655D01*
X10706619Y-8293607D01*
X10716143Y-8274559D01*
X10735190Y-8265036D01*
X10782810Y-8265036D01*
X10801857Y-8255512D01*
X10897095Y-8207893D02*
X10897095Y-8407893D01*
X10897095Y-8217417D02*
X10916143Y-8207893D01*
X10954238Y-8207893D01*
X10973286Y-8217417D01*
X10982810Y-8226940D01*
X10992333Y-8245988D01*
X10992333Y-8303131D01*
X10982810Y-8322178D01*
X10973286Y-8331702D01*
X10954238Y-8341226D01*
X10916143Y-8341226D01*
X10897095Y-8331702D01*
X11078048Y-8322178D02*
X11087571Y-8331702D01*
X11078048Y-8341226D01*
X11068524Y-8331702D01*
X11078048Y-8322178D01*
X11078048Y-8341226D01*
X11078048Y-8217417D02*
X11087571Y-8226940D01*
X11078048Y-8236464D01*
X11068524Y-8226940D01*
X11078048Y-8217417D01*
X11078048Y-8236464D01*
D12*
X9409000Y-8650750D02*
X9449000Y-8690750D01*
X9449000Y-8650750D02*
X9409000Y-8690750D01*
D11*
X9744714Y-8561226D02*
X9763762Y-8561226D01*
X9782810Y-8570750D01*
X9792333Y-8580274D01*
X9801857Y-8599321D01*
X9811381Y-8637417D01*
X9811381Y-8685036D01*
X9801857Y-8723131D01*
X9792333Y-8742179D01*
X9782810Y-8751702D01*
X9763762Y-8761226D01*
X9744714Y-8761226D01*
X9725667Y-8751702D01*
X9716143Y-8742179D01*
X9706619Y-8723131D01*
X9697095Y-8685036D01*
X9697095Y-8637417D01*
X9706619Y-8599321D01*
X9716143Y-8580274D01*
X9725667Y-8570750D01*
X9744714Y-8561226D01*
X9897095Y-8742179D02*
X9906619Y-8751702D01*
X9897095Y-8761226D01*
X9887571Y-8751702D01*
X9897095Y-8742179D01*
X9897095Y-8761226D01*
X10078048Y-8627893D02*
X10078048Y-8761226D01*
X10030429Y-8551702D02*
X9982810Y-8694560D01*
X10106619Y-8694560D01*
X10220905Y-8561226D02*
X10239952Y-8561226D01*
X10259000Y-8570750D01*
X10268524Y-8580274D01*
X10278048Y-8599321D01*
X10287571Y-8637417D01*
X10287571Y-8685036D01*
X10278048Y-8723131D01*
X10268524Y-8742179D01*
X10259000Y-8751702D01*
X10239952Y-8761226D01*
X10220905Y-8761226D01*
X10201857Y-8751702D01*
X10192333Y-8742179D01*
X10182810Y-8723131D01*
X10173286Y-8685036D01*
X10173286Y-8637417D01*
X10182810Y-8599321D01*
X10192333Y-8580274D01*
X10201857Y-8570750D01*
X10220905Y-8561226D01*
X10411381Y-8561226D02*
X10430429Y-8561226D01*
X10449476Y-8570750D01*
X10459000Y-8580274D01*
X10468524Y-8599321D01*
X10478048Y-8637417D01*
X10478048Y-8685036D01*
X10468524Y-8723131D01*
X10459000Y-8742179D01*
X10449476Y-8751702D01*
X10430429Y-8761226D01*
X10411381Y-8761226D01*
X10392333Y-8751702D01*
X10382810Y-8742179D01*
X10373286Y-8723131D01*
X10363762Y-8685036D01*
X10363762Y-8637417D01*
X10373286Y-8599321D01*
X10382810Y-8580274D01*
X10392333Y-8570750D01*
X10411381Y-8561226D01*
X10563762Y-8761226D02*
X10563762Y-8627893D01*
X10563762Y-8646940D02*
X10573286Y-8637417D01*
X10592333Y-8627893D01*
X10620905Y-8627893D01*
X10639952Y-8637417D01*
X10649476Y-8656464D01*
X10649476Y-8761226D01*
X10649476Y-8656464D02*
X10659000Y-8637417D01*
X10678048Y-8627893D01*
X10706619Y-8627893D01*
X10725667Y-8637417D01*
X10735190Y-8656464D01*
X10735190Y-8761226D01*
X10830429Y-8761226D02*
X10830429Y-8627893D01*
X10830429Y-8646940D02*
X10839952Y-8637417D01*
X10859000Y-8627893D01*
X10887571Y-8627893D01*
X10906619Y-8637417D01*
X10916143Y-8656464D01*
X10916143Y-8761226D01*
X10916143Y-8656464D02*
X10925667Y-8637417D01*
X10944714Y-8627893D01*
X10973286Y-8627893D01*
X10992333Y-8637417D01*
X11001857Y-8656464D01*
X11001857Y-8761226D01*
X11392333Y-8551702D02*
X11220905Y-8808845D01*
X11649476Y-8561226D02*
X11668524Y-8561226D01*
X11687571Y-8570750D01*
X11697095Y-8580274D01*
X11706619Y-8599321D01*
X11716143Y-8637417D01*
X11716143Y-8685036D01*
X11706619Y-8723131D01*
X11697095Y-8742179D01*
X11687571Y-8751702D01*
X11668524Y-8761226D01*
X11649476Y-8761226D01*
X11630428Y-8751702D01*
X11620905Y-8742179D01*
X11611381Y-8723131D01*
X11601857Y-8685036D01*
X11601857Y-8637417D01*
X11611381Y-8599321D01*
X11620905Y-8580274D01*
X11630428Y-8570750D01*
X11649476Y-8561226D01*
X11801857Y-8742179D02*
X11811381Y-8751702D01*
X11801857Y-8761226D01*
X11792333Y-8751702D01*
X11801857Y-8742179D01*
X11801857Y-8761226D01*
X11935190Y-8561226D02*
X11954238Y-8561226D01*
X11973286Y-8570750D01*
X11982809Y-8580274D01*
X11992333Y-8599321D01*
X12001857Y-8637417D01*
X12001857Y-8685036D01*
X11992333Y-8723131D01*
X11982809Y-8742179D01*
X11973286Y-8751702D01*
X11954238Y-8761226D01*
X11935190Y-8761226D01*
X11916143Y-8751702D01*
X11906619Y-8742179D01*
X11897095Y-8723131D01*
X11887571Y-8685036D01*
X11887571Y-8637417D01*
X11897095Y-8599321D01*
X11906619Y-8580274D01*
X11916143Y-8570750D01*
X11935190Y-8561226D01*
X12192333Y-8761226D02*
X12078048Y-8761226D01*
X12135190Y-8761226D02*
X12135190Y-8561226D01*
X12116143Y-8589798D01*
X12097095Y-8608845D01*
X12078048Y-8618369D01*
X12373286Y-8561226D02*
X12278048Y-8561226D01*
X12268524Y-8656464D01*
X12278048Y-8646940D01*
X12297095Y-8637417D01*
X12344714Y-8637417D01*
X12363762Y-8646940D01*
X12373286Y-8656464D01*
X12382809Y-8675512D01*
X12382809Y-8723131D01*
X12373286Y-8742179D01*
X12363762Y-8751702D01*
X12344714Y-8761226D01*
X12297095Y-8761226D01*
X12278048Y-8751702D01*
X12268524Y-8742179D01*
X12449476Y-8561226D02*
X12582809Y-8561226D01*
X12497095Y-8761226D01*
X12649476Y-8561226D02*
X12649476Y-8599321D01*
X12725667Y-8561226D02*
X12725667Y-8599321D01*
X13020905Y-8837417D02*
X13011381Y-8827893D01*
X12992333Y-8799321D01*
X12982809Y-8780274D01*
X12973286Y-8751702D01*
X12963762Y-8704083D01*
X12963762Y-8665988D01*
X12973286Y-8618369D01*
X12982809Y-8589798D01*
X12992333Y-8570750D01*
X13011381Y-8542179D01*
X13020905Y-8532655D01*
X13182809Y-8561226D02*
X13144714Y-8561226D01*
X13125667Y-8570750D01*
X13116143Y-8580274D01*
X13097095Y-8608845D01*
X13087571Y-8646940D01*
X13087571Y-8723131D01*
X13097095Y-8742179D01*
X13106619Y-8751702D01*
X13125667Y-8761226D01*
X13163762Y-8761226D01*
X13182809Y-8751702D01*
X13192333Y-8742179D01*
X13201857Y-8723131D01*
X13201857Y-8675512D01*
X13192333Y-8656464D01*
X13182809Y-8646940D01*
X13163762Y-8637417D01*
X13125667Y-8637417D01*
X13106619Y-8646940D01*
X13097095Y-8656464D01*
X13087571Y-8675512D01*
X13439952Y-8761226D02*
X13439952Y-8561226D01*
X13525667Y-8761226D02*
X13525667Y-8656464D01*
X13516143Y-8637417D01*
X13497095Y-8627893D01*
X13468524Y-8627893D01*
X13449476Y-8637417D01*
X13439952Y-8646940D01*
X13649476Y-8761226D02*
X13630428Y-8751702D01*
X13620905Y-8742179D01*
X13611381Y-8723131D01*
X13611381Y-8665988D01*
X13620905Y-8646940D01*
X13630428Y-8637417D01*
X13649476Y-8627893D01*
X13678048Y-8627893D01*
X13697095Y-8637417D01*
X13706619Y-8646940D01*
X13716143Y-8665988D01*
X13716143Y-8723131D01*
X13706619Y-8742179D01*
X13697095Y-8751702D01*
X13678048Y-8761226D01*
X13649476Y-8761226D01*
X13830428Y-8761226D02*
X13811381Y-8751702D01*
X13801857Y-8732655D01*
X13801857Y-8561226D01*
X13982809Y-8751702D02*
X13963762Y-8761226D01*
X13925667Y-8761226D01*
X13906619Y-8751702D01*
X13897095Y-8732655D01*
X13897095Y-8656464D01*
X13906619Y-8637417D01*
X13925667Y-8627893D01*
X13963762Y-8627893D01*
X13982809Y-8637417D01*
X13992333Y-8656464D01*
X13992333Y-8675512D01*
X13897095Y-8694560D01*
X14068524Y-8751702D02*
X14087571Y-8761226D01*
X14125667Y-8761226D01*
X14144714Y-8751702D01*
X14154238Y-8732655D01*
X14154238Y-8723131D01*
X14144714Y-8704083D01*
X14125667Y-8694560D01*
X14097095Y-8694560D01*
X14078048Y-8685036D01*
X14068524Y-8665988D01*
X14068524Y-8656464D01*
X14078048Y-8637417D01*
X14097095Y-8627893D01*
X14125667Y-8627893D01*
X14144714Y-8637417D01*
X14220905Y-8837417D02*
X14230428Y-8827893D01*
X14249476Y-8799321D01*
X14259000Y-8780274D01*
X14268524Y-8751702D01*
X14278048Y-8704083D01*
X14278048Y-8665988D01*
X14268524Y-8618369D01*
X14259000Y-8589798D01*
X14249476Y-8570750D01*
X14230428Y-8542179D01*
X14220905Y-8532655D01*
M02*
