G04 #@! TF.GenerationSoftware,KiCad,Pcbnew,(6.0.0)*
G04 #@! TF.CreationDate,2021-12-31T14:26:10+01:00*
G04 #@! TF.ProjectId,marklin-v100-led-front-pcb,6d61726b-6c69-46e2-9d76-3130302d6c65,0.1*
G04 #@! TF.SameCoordinates,Original*
G04 #@! TF.FileFunction,Legend,Bot*
G04 #@! TF.FilePolarity,Positive*
%FSLAX46Y46*%
G04 Gerber Fmt 4.6, Leading zero omitted, Abs format (unit mm)*
G04 Created by KiCad (PCBNEW (6.0.0)) date 2021-12-31 14:26:10*
%MOMM*%
%LPD*%
G01*
G04 APERTURE LIST*
%ADD10C,0.300000*%
%ADD11C,0.150000*%
%ADD12C,0.120000*%
%ADD13R,2.000000X2.000000*%
G04 APERTURE END LIST*
D10*
X103832857Y-68950357D02*
X103618571Y-69021785D01*
X103547142Y-69093214D01*
X103475714Y-69236071D01*
X103475714Y-69450357D01*
X103547142Y-69593214D01*
X103618571Y-69664642D01*
X103761428Y-69736071D01*
X104332857Y-69736071D01*
X104332857Y-68236071D01*
X103832857Y-68236071D01*
X103690000Y-68307500D01*
X103618571Y-68378928D01*
X103547142Y-68521785D01*
X103547142Y-68664642D01*
X103618571Y-68807500D01*
X103690000Y-68878928D01*
X103832857Y-68950357D01*
X104332857Y-68950357D01*
X108904285Y-74821071D02*
X108904285Y-73321071D01*
X108404285Y-74392500D01*
X107904285Y-73321071D01*
X107904285Y-74821071D01*
X106547142Y-74821071D02*
X106547142Y-74035357D01*
X106618571Y-73892500D01*
X106761428Y-73821071D01*
X107047142Y-73821071D01*
X107190000Y-73892500D01*
X106547142Y-74749642D02*
X106690000Y-74821071D01*
X107047142Y-74821071D01*
X107190000Y-74749642D01*
X107261428Y-74606785D01*
X107261428Y-74463928D01*
X107190000Y-74321071D01*
X107047142Y-74249642D01*
X106690000Y-74249642D01*
X106547142Y-74178214D01*
X107190000Y-73321071D02*
X107118571Y-73392500D01*
X107190000Y-73463928D01*
X107261428Y-73392500D01*
X107190000Y-73321071D01*
X107190000Y-73463928D01*
X106618571Y-73321071D02*
X106547142Y-73392500D01*
X106618571Y-73463928D01*
X106690000Y-73392500D01*
X106618571Y-73321071D01*
X106618571Y-73463928D01*
X105832857Y-74678214D02*
X105761428Y-74749642D01*
X105832857Y-74821071D01*
X105904285Y-74749642D01*
X105832857Y-74678214D01*
X105832857Y-74821071D01*
X104118571Y-73321071D02*
X103190000Y-73321071D01*
X103690000Y-73892500D01*
X103475714Y-73892500D01*
X103332857Y-73963928D01*
X103261428Y-74035357D01*
X103190000Y-74178214D01*
X103190000Y-74535357D01*
X103261428Y-74678214D01*
X103332857Y-74749642D01*
X103475714Y-74821071D01*
X103904285Y-74821071D01*
X104047142Y-74749642D01*
X104118571Y-74678214D01*
X102261428Y-73321071D02*
X102118571Y-73321071D01*
X101975714Y-73392500D01*
X101904285Y-73463928D01*
X101832857Y-73606785D01*
X101761428Y-73892500D01*
X101761428Y-74249642D01*
X101832857Y-74535357D01*
X101904285Y-74678214D01*
X101975714Y-74749642D01*
X102118571Y-74821071D01*
X102261428Y-74821071D01*
X102404285Y-74749642D01*
X102475714Y-74678214D01*
X102547142Y-74535357D01*
X102618571Y-74249642D01*
X102618571Y-73892500D01*
X102547142Y-73606785D01*
X102475714Y-73463928D01*
X102404285Y-73392500D01*
X102261428Y-73321071D01*
X101261428Y-73321071D02*
X100261428Y-73321071D01*
X100904285Y-74821071D01*
X99761428Y-73463928D02*
X99690000Y-73392500D01*
X99547142Y-73321071D01*
X99190000Y-73321071D01*
X99047142Y-73392500D01*
X98975714Y-73463928D01*
X98904285Y-73606785D01*
X98904285Y-73749642D01*
X98975714Y-73963928D01*
X99832857Y-74821071D01*
X98904285Y-74821071D01*
X111940000Y-76450357D02*
X112440000Y-76450357D01*
X112440000Y-77236071D02*
X112440000Y-75736071D01*
X111725714Y-75736071D01*
X111154285Y-77236071D02*
X111154285Y-76236071D01*
X111154285Y-76521785D02*
X111082857Y-76378928D01*
X111011428Y-76307500D01*
X110868571Y-76236071D01*
X110725714Y-76236071D01*
X110011428Y-77236071D02*
X110154285Y-77164642D01*
X110225714Y-77093214D01*
X110297142Y-76950357D01*
X110297142Y-76521785D01*
X110225714Y-76378928D01*
X110154285Y-76307500D01*
X110011428Y-76236071D01*
X109797142Y-76236071D01*
X109654285Y-76307500D01*
X109582857Y-76378928D01*
X109511428Y-76521785D01*
X109511428Y-76950357D01*
X109582857Y-77093214D01*
X109654285Y-77164642D01*
X109797142Y-77236071D01*
X110011428Y-77236071D01*
X108868571Y-76236071D02*
X108868571Y-77236071D01*
X108868571Y-76378928D02*
X108797142Y-76307500D01*
X108654285Y-76236071D01*
X108440000Y-76236071D01*
X108297142Y-76307500D01*
X108225714Y-76450357D01*
X108225714Y-77236071D01*
X107725714Y-76236071D02*
X107154285Y-76236071D01*
X107511428Y-75736071D02*
X107511428Y-77021785D01*
X107440000Y-77164642D01*
X107297142Y-77236071D01*
X107154285Y-77236071D01*
X106654285Y-76664642D02*
X105511428Y-76664642D01*
X104082857Y-77236071D02*
X104797142Y-77236071D01*
X104797142Y-75736071D01*
X103582857Y-76450357D02*
X103082857Y-76450357D01*
X102868571Y-77236071D02*
X103582857Y-77236071D01*
X103582857Y-75736071D01*
X102868571Y-75736071D01*
X102225714Y-77236071D02*
X102225714Y-75736071D01*
X101868571Y-75736071D01*
X101654285Y-75807500D01*
X101511428Y-75950357D01*
X101440000Y-76093214D01*
X101368571Y-76378928D01*
X101368571Y-76593214D01*
X101440000Y-76878928D01*
X101511428Y-77021785D01*
X101654285Y-77164642D01*
X101868571Y-77236071D01*
X102225714Y-77236071D01*
X99797142Y-75736071D02*
X99297142Y-77236071D01*
X98797142Y-75736071D01*
X98011428Y-75736071D02*
X97868571Y-75736071D01*
X97725714Y-75807500D01*
X97654285Y-75878928D01*
X97582857Y-76021785D01*
X97511428Y-76307500D01*
X97511428Y-76664642D01*
X97582857Y-76950357D01*
X97654285Y-77093214D01*
X97725714Y-77164642D01*
X97868571Y-77236071D01*
X98011428Y-77236071D01*
X98154285Y-77164642D01*
X98225714Y-77093214D01*
X98297142Y-76950357D01*
X98368571Y-76664642D01*
X98368571Y-76307500D01*
X98297142Y-76021785D01*
X98225714Y-75878928D01*
X98154285Y-75807500D01*
X98011428Y-75736071D01*
X96868571Y-77093214D02*
X96797142Y-77164642D01*
X96868571Y-77236071D01*
X96940000Y-77164642D01*
X96868571Y-77093214D01*
X96868571Y-77236071D01*
X95368571Y-77236071D02*
X96225714Y-77236071D01*
X95797142Y-77236071D02*
X95797142Y-75736071D01*
X95940000Y-75950357D01*
X96082857Y-76093214D01*
X96225714Y-76164642D01*
X110440000Y-78222500D02*
X110582857Y-78151071D01*
X110797142Y-78151071D01*
X111011428Y-78222500D01*
X111154285Y-78365357D01*
X111225714Y-78508214D01*
X111297142Y-78793928D01*
X111297142Y-79008214D01*
X111225714Y-79293928D01*
X111154285Y-79436785D01*
X111011428Y-79579642D01*
X110797142Y-79651071D01*
X110654285Y-79651071D01*
X110440000Y-79579642D01*
X110368571Y-79508214D01*
X110368571Y-79008214D01*
X110654285Y-79008214D01*
X109082857Y-78651071D02*
X109082857Y-79651071D01*
X109725714Y-78651071D02*
X109725714Y-79436785D01*
X109654285Y-79579642D01*
X109511428Y-79651071D01*
X109297142Y-79651071D01*
X109154285Y-79579642D01*
X109082857Y-79508214D01*
X108368571Y-79651071D02*
X108368571Y-78651071D01*
X108368571Y-78151071D02*
X108440000Y-78222500D01*
X108368571Y-78293928D01*
X108297142Y-78222500D01*
X108368571Y-78151071D01*
X108368571Y-78293928D01*
X107011428Y-79651071D02*
X107011428Y-78151071D01*
X107011428Y-79579642D02*
X107154285Y-79651071D01*
X107440000Y-79651071D01*
X107582857Y-79579642D01*
X107654285Y-79508214D01*
X107725714Y-79365357D01*
X107725714Y-78936785D01*
X107654285Y-78793928D01*
X107582857Y-78722500D01*
X107440000Y-78651071D01*
X107154285Y-78651071D01*
X107011428Y-78722500D01*
X106082857Y-79651071D02*
X106225714Y-79579642D01*
X106297142Y-79508214D01*
X106368571Y-79365357D01*
X106368571Y-78936785D01*
X106297142Y-78793928D01*
X106225714Y-78722500D01*
X106082857Y-78651071D01*
X105868571Y-78651071D01*
X105725714Y-78722500D01*
X105654285Y-78793928D01*
X105582857Y-78936785D01*
X105582857Y-79365357D01*
X105654285Y-79508214D01*
X105725714Y-79579642D01*
X105868571Y-79651071D01*
X106082857Y-79651071D01*
X103154285Y-79651071D02*
X103154285Y-78151071D01*
X103154285Y-79579642D02*
X103297142Y-79651071D01*
X103582857Y-79651071D01*
X103725714Y-79579642D01*
X103797142Y-79508214D01*
X103868571Y-79365357D01*
X103868571Y-78936785D01*
X103797142Y-78793928D01*
X103725714Y-78722500D01*
X103582857Y-78651071D01*
X103297142Y-78651071D01*
X103154285Y-78722500D01*
X101868571Y-79579642D02*
X102011428Y-79651071D01*
X102297142Y-79651071D01*
X102440000Y-79579642D01*
X102511428Y-79436785D01*
X102511428Y-78865357D01*
X102440000Y-78722500D01*
X102297142Y-78651071D01*
X102011428Y-78651071D01*
X101868571Y-78722500D01*
X101797142Y-78865357D01*
X101797142Y-79008214D01*
X102511428Y-79151071D01*
X100011428Y-79651071D02*
X100011428Y-78151071D01*
X100011428Y-78865357D02*
X99154285Y-78865357D01*
X99154285Y-79651071D02*
X99154285Y-78151071D01*
X97868571Y-79579642D02*
X98011428Y-79651071D01*
X98297142Y-79651071D01*
X98440000Y-79579642D01*
X98511428Y-79436785D01*
X98511428Y-78865357D01*
X98440000Y-78722500D01*
X98297142Y-78651071D01*
X98011428Y-78651071D01*
X97868571Y-78722500D01*
X97797142Y-78865357D01*
X97797142Y-79008214D01*
X98511428Y-79151071D01*
X97154285Y-79651071D02*
X97154285Y-78151071D01*
X97011428Y-79079642D02*
X96582857Y-79651071D01*
X96582857Y-78651071D02*
X97154285Y-79222500D01*
X109297142Y-68236071D02*
X109297142Y-69450357D01*
X109225714Y-69593214D01*
X109154285Y-69664642D01*
X109011428Y-69736071D01*
X108725714Y-69736071D01*
X108582857Y-69664642D01*
X108511428Y-69593214D01*
X108440000Y-69450357D01*
X108440000Y-68236071D01*
X107725714Y-69164642D02*
X106582857Y-69164642D01*
X107154285Y-69736071D02*
X107154285Y-68593214D01*
X99525714Y-69050357D02*
X100025714Y-69050357D01*
X100025714Y-69836071D02*
X100025714Y-68336071D01*
X99311428Y-68336071D01*
D11*
X99973333Y-63209880D02*
X99973333Y-63924166D01*
X100020952Y-64067023D01*
X100116190Y-64162261D01*
X100259047Y-64209880D01*
X100354285Y-64209880D01*
X98973333Y-64209880D02*
X99544761Y-64209880D01*
X99259047Y-64209880D02*
X99259047Y-63209880D01*
X99354285Y-63352738D01*
X99449523Y-63447976D01*
X99544761Y-63495595D01*
X108573333Y-63209880D02*
X108573333Y-63924166D01*
X108620952Y-64067023D01*
X108716190Y-64162261D01*
X108859047Y-64209880D01*
X108954285Y-64209880D01*
X108192380Y-63209880D02*
X107573333Y-63209880D01*
X107906666Y-63590833D01*
X107763809Y-63590833D01*
X107668571Y-63638452D01*
X107620952Y-63686071D01*
X107573333Y-63781309D01*
X107573333Y-64019404D01*
X107620952Y-64114642D01*
X107668571Y-64162261D01*
X107763809Y-64209880D01*
X108049523Y-64209880D01*
X108144761Y-64162261D01*
X108192380Y-64114642D01*
X104373333Y-63209880D02*
X104373333Y-63924166D01*
X104420952Y-64067023D01*
X104516190Y-64162261D01*
X104659047Y-64209880D01*
X104754285Y-64209880D01*
X103944761Y-63305119D02*
X103897142Y-63257500D01*
X103801904Y-63209880D01*
X103563809Y-63209880D01*
X103468571Y-63257500D01*
X103420952Y-63305119D01*
X103373333Y-63400357D01*
X103373333Y-63495595D01*
X103420952Y-63638452D01*
X103992380Y-64209880D01*
X103373333Y-64209880D01*
D12*
X101090000Y-65057500D02*
X98690000Y-65057500D01*
X98690000Y-67457500D02*
X101090000Y-67457500D01*
X101090000Y-67457500D02*
X101090000Y-65057500D01*
X98690000Y-65057500D02*
X98690000Y-67457500D01*
X109190000Y-65057500D02*
X106790000Y-65057500D01*
X106790000Y-65057500D02*
X106790000Y-67457500D01*
X109190000Y-67457500D02*
X109190000Y-65057500D01*
X106790000Y-67457500D02*
X109190000Y-67457500D01*
X105140000Y-67457500D02*
X105140000Y-65057500D01*
X105140000Y-65057500D02*
X102740000Y-65057500D01*
X102740000Y-67457500D02*
X105140000Y-67457500D01*
X102740000Y-65057500D02*
X102740000Y-67457500D01*
%LPC*%
D13*
X99890000Y-66257500D03*
X107990000Y-66257500D03*
X103940000Y-66257500D03*
M02*
