%FSLAX45Y45*%
G04 Gerber Fmt 4.5, Leading zero omitted, Abs format (unit mm)*
G04 Created by KiCad (PCBNEW (6.0.0)) date 2021-12-31 14:26:19*
%MOMM*%
%LPD*%
G01*
G04 APERTURE LIST*
%TA.AperFunction,Profile*%
%ADD10C,0.100000*%
%TD*%
%ADD11C,0.200000*%
G04 APERTURE END LIST*
D10*
X11354000Y-7325750D02*
X11154000Y-7325750D01*
X11154000Y-6455750D02*
X11154000Y-7325750D01*
X10574000Y-6225750D02*
X10924000Y-6225750D01*
X10234000Y-6225750D02*
X10234000Y-6025750D01*
X10234000Y-6225750D02*
X9864000Y-6225750D01*
X10574000Y-6025750D02*
X10574000Y-6225750D01*
X9654000Y-6465750D02*
X9654000Y-7325750D01*
X9454000Y-8025750D02*
X11354000Y-8025750D01*
X9454000Y-7325750D02*
X9654000Y-7325750D01*
X11354000Y-8025750D02*
X11354000Y-7325750D01*
X9454000Y-8025750D02*
X9454000Y-7325750D01*
X10234000Y-6025750D02*
X10574000Y-6025750D01*
X10924000Y-6225750D02*
X11154000Y-6455750D01*
X9864000Y-6225750D02*
X9654000Y-6465750D01*
D11*
X9706619Y-8341226D02*
X9706619Y-8141226D01*
X9754238Y-8141226D01*
X9782810Y-8150750D01*
X9801857Y-8169798D01*
X9811381Y-8188845D01*
X9820905Y-8226940D01*
X9820905Y-8255512D01*
X9811381Y-8293607D01*
X9801857Y-8312655D01*
X9782810Y-8331702D01*
X9754238Y-8341226D01*
X9706619Y-8341226D01*
X9906619Y-8341226D02*
X9906619Y-8207893D01*
X9906619Y-8245988D02*
X9916143Y-8226940D01*
X9925667Y-8217417D01*
X9944714Y-8207893D01*
X9963762Y-8207893D01*
X10030429Y-8341226D02*
X10030429Y-8207893D01*
X10030429Y-8141226D02*
X10020905Y-8150750D01*
X10030429Y-8160274D01*
X10039952Y-8150750D01*
X10030429Y-8141226D01*
X10030429Y-8160274D01*
X10154238Y-8341226D02*
X10135190Y-8331702D01*
X10125667Y-8312655D01*
X10125667Y-8141226D01*
X10259000Y-8341226D02*
X10239952Y-8331702D01*
X10230429Y-8312655D01*
X10230429Y-8141226D01*
X10487571Y-8341226D02*
X10487571Y-8141226D01*
X10554238Y-8284083D01*
X10620905Y-8141226D01*
X10620905Y-8341226D01*
X10801857Y-8341226D02*
X10801857Y-8236464D01*
X10792333Y-8217417D01*
X10773286Y-8207893D01*
X10735190Y-8207893D01*
X10716143Y-8217417D01*
X10801857Y-8331702D02*
X10782810Y-8341226D01*
X10735190Y-8341226D01*
X10716143Y-8331702D01*
X10706619Y-8312655D01*
X10706619Y-8293607D01*
X10716143Y-8274559D01*
X10735190Y-8265036D01*
X10782810Y-8265036D01*
X10801857Y-8255512D01*
X10897095Y-8207893D02*
X10897095Y-8407893D01*
X10897095Y-8217417D02*
X10916143Y-8207893D01*
X10954238Y-8207893D01*
X10973286Y-8217417D01*
X10982810Y-8226940D01*
X10992333Y-8245988D01*
X10992333Y-8303131D01*
X10982810Y-8322178D01*
X10973286Y-8331702D01*
X10954238Y-8341226D01*
X10916143Y-8341226D01*
X10897095Y-8331702D01*
X11078048Y-8322178D02*
X11087571Y-8331702D01*
X11078048Y-8341226D01*
X11068524Y-8331702D01*
X11078048Y-8322178D01*
X11078048Y-8341226D01*
X11078048Y-8217417D02*
X11087571Y-8226940D01*
X11078048Y-8236464D01*
X11068524Y-8226940D01*
X11078048Y-8217417D01*
X11078048Y-8236464D01*
M02*
